# xmcd
#
# Track frame offsets: 
#        150
#        17856
#        35656
#        56664
#        75731
#        97494
#        118063
#        135651
#        153175
#        170323
#
# Disc length: 2540 seconds
#
# Revision: 0
# Processed by: cddbd v1.5.2PL0 Copyright (c) Steve Scherf et al.
# Submitted via: ExactAudioCopy v1.0b1
#
DISCID=8409ea0a
DTITLE=Naja Rosa - Naja Rosa
DYEAR=2010
DGENRE=Rock
TTITLE0=Set It On Fire
TTITLE1=From The Bed To The Floor
TTITLE2=Winds Are Changing
TTITLE3=When The Smoke Clears
TTITLE4=Fly Away
TTITLE5=Heaven Is Crying
TTITLE6=The City
TTITLE7=Mountain Of Love
TTITLE8=Fallin'
TTITLE9=If Time Was A Religion
EXTD=
EXTT0=
EXTT1=
EXTT2=
EXTT3=
EXTT4=
EXTT5=
EXTT6=
EXTT7=
EXTT8=
EXTT9=
PLAYORDER=
